# xmcd
#
# Track frame offsets: 
#        150
#        12447
#        33102
#        53512
#        74002
#        88877
#        109625
#        126437
#        145112
#        158837
#        179412
#        195184
#
# Disc length: 2862 seconds
#
# Revision: 0
# Processed by: cddbd v1.4PL0 Copyright (c) Steve Scherf et al.
# Submitted via: ExactAudioCopy v0.90a11
#
DISCID=9e0b2c0c
DTITLE=Roland Tchakounte - Bred Bouh Shuga Blues
DYEAR=1900
DGENRE=
TTITLE0=Adigo for America
TTITLE1=Seni fih (Bred bouh shuga blues)
TTITLE2=Chup frein
TTITLE3=Anekohfak
TTITLE4=Me koh blues
TTITLE5=Nga mbe
TTITLE6=Ngap
TTITLE7=Ka konte nouman
TTITLE8=Yam nvanouh
TTITLE9=Me sein
TTITLE10=Ne fide every day
TTITLE11=Yog sam
EXTD=
EXTT0=
EXTT1=
EXTT2=
EXTT3=
EXTT4=
EXTT5=
EXTT6=
EXTT7=
EXTT8=
EXTT9=
EXTT10=
EXTT11=
PLAYORDER=
